<?xml version="1.0" encoding="utf-8"?>
<!-- Generator: Adobe Illustrator 23.0.0, SVG Export Plug-In . SVG Version: 6.00 Build 0)  -->
<svg version="1.1" id="Capa_1" xmlns="http://www.w3.org/2000/svg" xmlns:xlink="http://www.w3.org/1999/xlink" x="0px" y="0px"
	 viewBox="0 0 512 512" style="enable-background:new 0 0 512 512;" xml:space="preserve">
<style type="text/css">
	.st0{fill:#697FFF;}
</style>
<g>
	<g>
		<g>
			<path class="st0" d="M345.9,281.9c19.2-8.9,38.2-15.3,57-19.3c5.4-1.1,8.9-6.5,7.7-11.9c-1.1-5.4-6.4-8.9-11.9-7.7
				c-21.7,4.6-43.7,12.3-65.7,22.9c-12.3-14.7-26.4-30-41.6-45.2c-16.1-16.1-32.5-31-48-43.9c13.4-17,24.4-35.9,32.6-56.7
				c12.9-32.4,19.5-69.4,19.5-110c0-5.5-4.5-10-10-10s-10,4.5-10,10c0,62.6-16,114.4-47.7,154.3c-6-4.6-11.8-8.8-17.3-12.5
				c-29.6-20-47.3-24.7-57.2-15.2c-0.1,0.1-0.1,0.1-0.2,0.2c0,0,0,0,0,0c0,0,0,0,0,0c-2.5,2.5-4.1,5.6-4.7,9.3L0.8,498.1
				c-1.6,3.7-0.7,8.1,2.2,10.9C4.8,511,7.4,512,10,512c1.3,0,2.6-0.3,3.9-0.8c0,0,0,0,0,0l351.9-147.6c3.3-0.5,6.2-1.9,8.6-4.1
				c0.2-0.1,0.3-0.3,0.5-0.5c0.1-0.1,0.1-0.1,0.2-0.2c0,0,0,0,0,0c0.1-0.1,0.1-0.1,0.2-0.2c9.5-9.9,4.8-27.5-15.2-57.2
				C355.9,295.3,351.1,288.7,345.9,281.9z M79.3,440.8c-2.1,13-6.7,21.6-9,25.1l-41.7,17.5L71,382.4C79.3,403.1,82.2,423,79.3,440.8
				z M140.9,406.9c-4,23-14.7,34.1-17.8,36.8l-26.4,11c5.9-20.9,7.4-54-15.2-97.4l30-71.5C142.6,344.9,144.9,383.9,140.9,406.9z
				 M176.5,421.3l-21.6,9c2.1-5.2,3.9-11.1,5.2-17.8c8-40.9-5.1-91.4-38.8-150.2l10.8-25.8c8.6,10.3,18.3,24.9,22.3,34.1
				c1.6,3.8,5.3,6.1,9.2,6.1c1.3,0,2.7-0.3,3.9-0.8c5.1-2.2,7.4-8.1,5.2-13.1c-5.9-13.6-20.7-34.9-32.1-46.6l16.5-39.4
				c2.9,5.3,6.5,11.1,10.8,17.5c3,4.4,6.2,8.9,9.7,13.6c34.2,51.9,33.4,105,26.7,140.5C197.3,386.1,182.1,413.7,176.5,421.3z
				 M253.6,389l-47.5,19.9c6.9-15,13.8-34.8,18-56.8c4.6-24.6,6.7-57-1.9-91.9c4.7,5,9.6,10,14.6,15c15,15,30.1,28.8,44.5,41
				C279.9,363.4,258.2,384.9,253.6,389z M288,374.6c5.4-11.1,10.1-25.3,12.2-43.2c6,4.6,11.9,8.8,17.5,12.6
				c6.4,4.3,12.2,7.9,17.5,10.8L288,374.6z M323.2,323.5c-21.7-15.4-47.4-37.6-72.3-62.4c-24.9-24.9-47-50.5-62.4-72.3
				c-14.9-21-18.9-31.8-20-36.4c4.6,1.1,15.4,5.1,36.4,20c3.1,2.2,6.3,4.6,9.6,7c-0.7,0.7-1.4,1.5-2.1,2.2c-3.9,3.9-3.9,10.2,0,14.1
				c2,2,4.5,2.9,7.1,2.9s5.1-1,7.1-2.9c1.3-1.3,2.5-2.5,3.7-3.8c15.2,12.5,31.2,27.2,46.9,42.9c13.5,13.5,26.2,27.3,37.5,40.5
				c-1.8,1-3.6,2-5.4,3.1c-4.8,2.8-6.4,8.9-3.7,13.7c1.9,3.2,5.2,5,8.7,5c1.7,0,3.4-0.4,5-1.3c2.8-1.6,5.6-3.1,8.3-4.6
				c4.3,5.5,8.4,10.9,12,16c14.9,21,18.9,31.8,20,36.4C355,342.4,344.2,338.4,323.2,323.5z"/>
			<path class="st0" d="M180.9,288.5c-2.3-5-8.2-7.3-13.2-5c-4.9,2.2-7.1,7.8-5.2,12.8c1.5,4,5.3,6.4,9.3,6.4c1.1,0,2.2-0.2,3.3-0.6
				c5.2-1.8,8-7.5,6.1-12.7C181.1,289.1,181,288.8,180.9,288.5z"/>
			<path class="st0" d="M373.4,154.7c2,2,4.5,2.9,7.1,2.9c2.6,0,5.1-1,7.1-2.9c22.3-22.3,58.5-32.6,85-34.7
				c5.5-0.4,9.6-5.3,9.2-10.8c-0.4-5.5-5.3-9.6-10.8-9.2c-30,2.4-71.3,14.3-97.5,40.5C369.5,144.5,369.5,150.8,373.4,154.7z"/>
			<path class="st0" d="M504.6,102c-0.3-0.1-0.6-0.2-0.9-0.2c-5.4-1.3-10.8,1.9-12.1,7.3c-1.3,5.4,1.9,10.8,7.3,12.1l0.5,0.1
				c0.9,0.2,1.7,0.3,2.6,0.3c4.4,0,8.5-2.9,9.7-7.4C513.1,108.9,509.9,103.4,504.6,102z"/>
			<path class="st0" d="M73.5,83.6h10v10c0,5.5,4.5,10,10,10s10-4.5,10-10v-10h10c5.5,0,10-4.5,10-10s-4.5-10-10-10h-10v-10
				c0-5.5-4.5-10-10-10s-10,4.5-10,10v10h-10c-5.5,0-10,4.5-10,10C63.5,79.1,68,83.6,73.5,83.6z"/>
			<path class="st0" d="M307.5,180.6h10v10c0,5.5,4.5,10,10,10c5.5,0,10-4.5,10-10v-10h10c5.5,0,10-4.5,10-10s-4.5-10-10-10h-10v-10
				c0-5.5-4.5-10-10-10c-5.5,0-10,4.5-10,10v10h-10c-5.5,0-10,4.5-10,10C297.5,176.1,302,180.6,307.5,180.6z"/>
			<path class="st0" d="M446.5,417.6h-10v-10c0-5.5-4.5-10-10-10s-10,4.5-10,10v10h-10c-5.5,0-10,4.5-10,10s4.5,10,10,10h10v10
				c0,5.5,4.5,10,10,10s10-4.5,10-10v-10h10c5.5,0,10-4.5,10-10S452,417.6,446.5,417.6z"/>
			<path class="st0" d="M390,60c16.5,0,30-13.5,30-30S406.5,0,390,0s-30,13.5-30,30S373.4,60,390,60z M390,20c5.5,0,10,4.5,10,10
				s-4.5,10-10,10s-10-4.5-10-10S384.5,20,390,20z"/>
			<path class="st0" d="M452.5,173.6c-16.5,0-30,13.5-30,30s13.5,30,30,30s30-13.5,30-30S469,173.6,452.5,173.6z M452.5,213.6
				c-5.5,0-10-4.5-10-10s4.5-10,10-10s10,4.5,10,10S458,213.6,452.5,213.6z"/>
			<path class="st0" d="M198.5,95.6c16.5,0,30-13.5,30-30s-13.5-30-30-30s-30,13.5-30,30S182,95.6,198.5,95.6z M198.5,55.6
				c5.5,0,10,4.5,10,10s-4.5,10-10,10s-10-4.5-10-10C188.5,60.1,193,55.6,198.5,55.6z"/>
			<path class="st0" d="M449.2,294.1c0-5.5-4.5-10-10-10s-10,4.5-10,10s4.5,10,10,10S449.2,299.6,449.2,294.1z"/>
			<path class="st0" d="M335.2,95.1c5.5,0,10-4.5,10-10s-4.5-10-10-10s-10,4.5-10,10C325.2,90.6,329.7,95.1,335.2,95.1z"/>
			<path class="st0" d="M469.2,359.1c-5.5,0-10,4.5-10,10s4.5,10,10,10c5.5,0,10-4.5,10-10C479.2,363.5,474.7,359.1,469.2,359.1z"/>
			<path class="st0" d="M139.2,30c5.5,0,10-4.5,10-10s-4.5-10-10-10s-10,4.5-10,10S133.7,30,139.2,30z"/>
		</g>
	</g>
</g>
</svg>
