<?xml version="1.0" encoding="utf-8"?>
<!-- Generator: Adobe Illustrator 23.0.0, SVG Export Plug-In . SVG Version: 6.00 Build 0)  -->
<svg version="1.1" id="Layer_1" xmlns="http://www.w3.org/2000/svg" xmlns:xlink="http://www.w3.org/1999/xlink" x="0px" y="0px"
	 viewBox="0 0 512 512" style="enable-background:new 0 0 512 512;" xml:space="preserve">
<style type="text/css">
	.st0{fill:#697FFF;}
</style>
<g>
	<g>
		<path class="st0" d="M449.1,70.1c-0.2-0.8-0.4-1.5-0.7-2.2c-0.3-0.7-0.7-1.4-1.1-2c-0.4-0.6-0.9-1.2-1.5-1.8s-1.1-1-1.8-1.5
			c-0.6-0.4-1.3-0.8-2-1.1c-0.7-0.3-1.4-0.5-2.2-0.7c-1.5-0.3-3.1-0.3-4.6,0c-0.8,0.2-1.5,0.4-2.2,0.7c-0.7,0.3-1.4,0.7-2,1.1
			c-0.6,0.4-1.2,0.9-1.8,1.5c-0.5,0.5-1,1.2-1.5,1.8c-0.4,0.6-0.8,1.3-1.1,2c-0.3,0.7-0.5,1.4-0.7,2.2c-0.2,0.8-0.2,1.5-0.2,2.3
			c0,0.8,0.1,1.5,0.2,2.3c0.2,0.8,0.4,1.5,0.7,2.2c0.3,0.7,0.7,1.4,1.1,2c0.4,0.6,0.9,1.2,1.5,1.8c0.5,0.5,1.2,1,1.8,1.5
			c0.6,0.4,1.3,0.8,2,1.1c0.7,0.3,1.4,0.5,2.2,0.7c0.8,0.2,1.5,0.2,2.3,0.2c0.8,0,1.5-0.1,2.3-0.2c0.8-0.2,1.5-0.4,2.2-0.7
			c0.7-0.3,1.4-0.7,2-1.1c0.6-0.4,1.2-0.9,1.8-1.5c2.2-2.2,3.4-5.2,3.4-8.3C449.3,71.6,449.3,70.8,449.1,70.1z"/>
	</g>
</g>
<g>
	<g>
		<path class="st0" d="M502.4,398.2c-0.8-17.8-8.1-34.4-20-46.6c6.6-9.1,10.5-20.3,10.5-32.5c0-1.3-0.1-2.7-0.2-4
			c5.5-32.5,8.4-71.7,8.4-113.7c0-5.9-0.3-13.6-0.4-17.3l-0.1-1.6c-1.6-52.5-7.7-97-17.6-128.8C472.1,18.1,456.8,0,437.6,0
			c-19.2,0-34.5,18.1-45.6,53.7c-9.9,31.8-16,76.3-17.6,128.8l-0.1,1.6c-0.1,3.7-0.4,11.4-0.4,17.3c0,42,2.9,81.2,8.4,113.7
			c-0.1,1.3-0.2,2.6-0.2,4c0,12,3.8,23.1,10.3,32.1c-13.3,13.6-20.7,33-19.7,53c1.2,25.7,14.1,38.3,24.4,48.5
			c11.1,11,17.3,17,11.2,37.9c-3,10.3,1.2,15.8,4,18.1c2.1,1.7,5.1,3.3,9.2,3.3c2.8,0,6.2-0.7,10.1-2.7
			C453.7,498.4,504.6,443.7,502.4,398.2z M397.8,184.9l0.1-1.6c3.6-119.5,28.8-159.8,39.7-159.8c10.9,0,36.1,40.2,39.7,159.8
			l0.1,1.6c0.1,3.6,0.4,11,0.4,16.5c0,26.9-1.2,52.6-3.6,75.9c-7-6.1-15.5-10.4-24.8-12.5V110.9c0-6.5-5.3-11.7-11.7-11.7
			s-11.7,5.3-11.7,11.7v153.9c-9.4,2-17.9,6.4-24.8,12.4c-2.3-23.3-3.6-49-3.6-75.9C397.5,195.9,397.7,188.4,397.8,184.9z
			 M469.5,319.1c0,9.9-4.6,18.8-11.7,24.7c-0.5,0.4-1.1,0.9-1.7,1.3c-0.2,0.1-0.4,0.3-0.6,0.4c-0.6,0.4-1.2,0.8-1.9,1.2
			c-0.2,0.1-0.3,0.2-0.5,0.3c-0.7,0.4-1.4,0.8-2.1,1.1c-0.1,0-0.2,0.1-0.2,0.1c-2.4,1.1-5,1.9-7.6,2.4c-0.1,0-0.1,0-0.2,0
			c-0.8,0.1-1.7,0.3-2.5,0.3c-0.1,0-0.2,0-0.3,0c-0.9,0.1-1.7,0.1-2.6,0.1c0,0,0,0,0,0c-0.9,0-1.8,0-2.6-0.1c-0.1,0-0.2,0-0.3,0
			c-0.9-0.1-1.7-0.2-2.6-0.3c-0.1,0-0.1,0-0.2,0c-2.7-0.5-5.4-1.3-7.9-2.5c0,0,0,0,0,0c-0.8-0.4-1.5-0.8-2.3-1.2
			c-0.1-0.1-0.2-0.1-0.3-0.2c-0.7-0.4-1.4-0.8-2-1.3c-0.1-0.1-0.3-0.2-0.4-0.3c-0.6-0.5-1.2-0.9-1.8-1.4c-7-5.9-11.4-14.7-11.4-24.5
			c0-15.9,11.7-29.2,27-31.6c0,0,0.1,0,0.1,0c0.4-0.1,0.9-0.1,1.4-0.2c0.1,0,0.2,0,0.3,0c0.4,0,0.8-0.1,1.3-0.1c0.1,0,0.2,0,0.4,0
			c0.5,0,1.1,0,1.6,0c0,0,0,0,0,0c0.5,0,1.1,0,1.6,0c0.1,0,0.2,0,0.3,0c0.4,0,0.9,0.1,1.3,0.1c0.1,0,0.2,0,0.2,0
			c0.5,0,0.9,0.1,1.4,0.2c0,0,0.1,0,0.1,0C457.8,289.9,469.5,303.1,469.5,319.1z M454.7,455.9c-7.4,9.7-14.6,17.2-20.6,22.6
			c0.8-21.6-10.8-33-20.5-42.6c-8.9-8.8-16.7-16.4-17.4-32.8c-0.6-13.9,4.5-27.1,13.6-36.1c0.2,0.1,0.4,0.2,0.5,0.3
			c0.7,0.4,1.5,0.8,2.2,1.2c0.2,0.1,0.4,0.2,0.6,0.3c2,1,4.2,1.9,6.4,2.6c0.1,0,0.2,0.1,0.4,0.1c1.1,0.4,2.2,0.7,3.3,1c0,0,0,0,0,0
			c2.2,0.6,4.5,1.1,6.8,1.4c0.2,0,0.5,0.1,0.7,0.1c0.9,0.1,1.8,0.2,2.7,0.3c0.3,0,0.6,0,0.8,0.1c1.1,0.1,2.2,0.1,3.4,0.1
			c0,0,0,0,0,0c1.1,0,2.2,0,3.3-0.1c0.3,0,0.6,0,0.8-0.1c0.9-0.1,1.8-0.2,2.6-0.3c0.2,0,0.5-0.1,0.7-0.1c3.4-0.5,6.8-1.2,10-2.3
			c0.1,0,0.3-0.1,0.4-0.1c1-0.3,2-0.7,2.9-1.1c0.1,0,0.2-0.1,0.3-0.1c1-0.4,2.1-0.9,3.1-1.4c0.2-0.1,0.3-0.2,0.5-0.2
			c0.8-0.4,1.5-0.8,2.3-1.2c0.2-0.1,0.3-0.2,0.5-0.3c8.3,8.2,13.4,19.7,14,32C479.7,414.3,470.8,434.9,454.7,455.9z"/>
	</g>
</g>
<g>
	<g>
		<path class="st0" d="M322,256c0-17.6,5.3-34.3,15.5-48.2c16-22,21.9-49.9,16.3-76.6c-5.4-25.7-20.5-47-42.5-59.9
			c-30.1-17.6-64.4-27-99.1-27c0,0,0,0,0,0C100.6,44.3,9.7,139.1,9.5,255.6C9.4,314,31.5,368.4,71.9,408.8
			c37.9,38,87.8,58.9,140.3,58.9c34.6,0,68.8-9.3,98.8-26.8c22.1-12.9,37.3-34.2,42.7-60c5.6-26.7-0.3-54.6-16.3-76.6
			C327.3,290.3,322,273.6,322,256z M330.8,376c-4,19.2-15.2,35.1-31.6,44.6c-26.4,15.5-56.5,23.6-87,23.6
			c-46.3,0-90.2-18.5-123.7-52c-35.9-36-55.6-84.5-55.5-136.6c0.2-103.6,80.6-187.8,179.2-187.8c0,0,0,0,0,0
			c30.5,0,60.7,8.2,87.2,23.7c16.2,9.5,27.4,25.3,31.4,44.4c4.2,20.2-0.3,41.4-12.3,58c-13,18-19.9,39.4-19.9,62
			c0,22.6,6.9,44,19.9,62C330.5,334.6,335,355.8,330.8,376z"/>
	</g>
</g>
<g>
	<g>
		<path class="st0" d="M298.3,328.4c-15.2-21-23.3-46-23.3-72.4c0-14,2.3-27.6,6.7-40.5c2.1-6.1-1.1-12.8-7.3-14.9
			c-6.1-2.1-12.8,1.1-14.9,7.3c-5.3,15.4-8,31.6-8,48.1c0,31.3,9.6,61.1,27.8,86.1c2.3,3.2,5.9,4.8,9.5,4.8c2.4,0,4.8-0.7,6.9-2.2
			C301,340.9,302.1,333.6,298.3,328.4z"/>
	</g>
</g>
<g>
	<g>
		<path class="st0" d="M297.4,168.7l-0.2-0.2c-4.6-4.6-12-4.6-16.6,0c-4.6,4.6-4.6,12,0,16.6l0.2,0.2c2.3,2.3,5.3,3.4,8.3,3.4
			c3,0,6-1.1,8.3-3.4C301.9,180.7,301.9,173.3,297.4,168.7z"/>
	</g>
</g>
<g>
	<g>
		<path class="st0" d="M98.5,203.4c-29,0-52.6,23.6-52.6,52.6s23.6,52.6,52.6,52.6s52.6-23.6,52.6-52.6S127.5,203.4,98.5,203.4z
			 M98.5,285.1c-16.1,0-29.1-13.1-29.1-29.1s13.1-29.1,29.1-29.1s29.1,13.1,29.1,29.1C127.6,272.1,114.6,285.1,98.5,285.1z"/>
	</g>
</g>
<g>
	<g>
		<path class="st0" d="M212.5,330.2c-20.5-20.5-53.9-20.5-74.4,0c-9.9,9.9-15.4,23.1-15.4,37.2c0,14.1,5.5,27.3,15.4,37.2
			s23.1,15.4,37.2,15.4s27.3-5.5,37.2-15.4C233,384,233,350.7,212.5,330.2z M195.9,387.9c-5.5,5.5-12.8,8.5-20.6,8.5
			s-15.1-3-20.6-8.5s-8.5-12.8-8.5-20.6s3-15.1,8.5-20.6c5.7-5.7,13.1-8.5,20.6-8.5c7.5,0,14.9,2.8,20.6,8.5
			C207.2,358.1,207.2,376.6,195.9,387.9z"/>
	</g>
</g>
<g>
	<g>
		<path class="st0" d="M212.5,107.4c-20.5-20.5-53.9-20.5-74.4,0c-20.5,20.5-20.5,53.9,0,74.4c10.3,10.3,23.7,15.4,37.2,15.4
			s26.9-5.1,37.2-15.4C233,161.3,233,127.9,212.5,107.4z M195.9,165.2c-11.4,11.4-29.8,11.4-41.2,0c-11.4-11.4-11.4-29.8,0-41.2
			c5.7-5.7,13.1-8.5,20.6-8.5c7.5,0,14.9,2.8,20.6,8.5C207.2,135.4,207.2,153.9,195.9,165.2z"/>
	</g>
</g>
</svg>
