<?xml version="1.0" encoding="utf-8"?>
<!-- Generator: Adobe Illustrator 23.0.0, SVG Export Plug-In . SVG Version: 6.00 Build 0)  -->
<svg version="1.1" id="Layer_1" xmlns="http://www.w3.org/2000/svg" xmlns:xlink="http://www.w3.org/1999/xlink" x="0px" y="0px"
	 viewBox="0 0 512 512" style="enable-background:new 0 0 512 512;" xml:space="preserve">
<style type="text/css">
	.st0{fill:#697FFF;}
</style>
<path class="st0" d="M339.1,433.4h-10.6c-5.5,0-10-4.5-10-10c0-5.5,4.5-10,10-10h10.6c5.5,0,10,4.5,10,10
	C349.1,428.9,344.6,433.4,339.1,433.4z"/>
<path class="st0" d="M184.1,433.4h-10.6c-5.5,0-10-4.5-10-10c0-5.5,4.5-10,10-10h10.6c5.5,0,10,4.5,10,10
	C194.1,428.9,189.6,433.4,184.1,433.4z"/>
<path class="st0" d="M102.7,88.3H65.8c-24.3,0-44.1-19.8-44.1-44.1C21.7,19.8,41.5,0,65.8,0h305.1c5.5,0,10,4.5,10,10
	c0,5.5-4.5,10-10,10H65.8c-13.3,0-24.1,10.8-24.1,24.1c0,13.3,10.8,24.1,24.1,24.1h36.9c5.5,0,10,4.5,10,10S108.2,88.3,102.7,88.3z"
	/>
<path class="st0" d="M144.5,88.3c-0.6,0-1.3-0.1-1.9-0.2s-1.3-0.3-1.9-0.6c-0.6-0.3-1.2-0.6-1.7-0.9c-0.5-0.4-1.1-0.8-1.5-1.3
	c-0.5-0.5-0.9-1-1.2-1.5c-0.4-0.5-0.7-1.1-0.9-1.7c-0.3-0.6-0.4-1.2-0.6-1.9c-0.1-0.6-0.2-1.3-0.2-1.9c0-0.7,0.1-1.3,0.2-1.9
	c0.1-0.6,0.3-1.3,0.6-1.9c0.3-0.6,0.6-1.2,0.9-1.7c0.4-0.6,0.8-1.1,1.2-1.5s1-0.9,1.5-1.2c0.5-0.4,1.1-0.7,1.7-0.9
	c0.6-0.3,1.2-0.4,1.9-0.6c1.3-0.3,2.6-0.3,3.9,0c0.6,0.1,1.3,0.3,1.9,0.6c0.6,0.3,1.2,0.6,1.7,0.9c0.5,0.4,1.1,0.8,1.5,1.2
	c0.5,0.5,0.9,1,1.2,1.5c0.4,0.5,0.7,1.1,0.9,1.7c0.3,0.6,0.4,1.2,0.6,1.9c0.1,0.6,0.2,1.3,0.2,1.9c0,0.6-0.1,1.3-0.2,1.9
	c-0.1,0.6-0.3,1.3-0.6,1.9c-0.3,0.6-0.6,1.2-0.9,1.7c-0.4,0.6-0.8,1.1-1.2,1.5c-0.5,0.5-1,0.9-1.5,1.3c-0.5,0.4-1.1,0.7-1.7,0.9
	c-0.6,0.3-1.2,0.4-1.9,0.6S145.1,88.3,144.5,88.3z"/>
<path class="st0" d="M506.6,436.9c-0.5-29.9-8.2-68.7-23.6-118.6c-13.2-42.8-32.5-76.8-55.7-98.2c-24-22.2-51.8-29.9-78.1-21.8
	c-12.2,3.8-31.6,7.5-48.3,9.8v-13.6c0-15.1-12.3-27.3-27.3-27.3h-7.3c2.9-8.3,10.8-14.2,20-14.2h80.4c23.4,0,42.4-19,42.4-42.4
	s-19-42.4-42.4-42.4H183.3c-5.5,0-10,4.5-10,10c0,5.5,4.5,10,10,10h183.6c12.3,0,22.4,10,22.4,22.4s-10,22.4-22.4,22.4h-80.4
	c-20.3,0-37.3,14.8-40.6,34.2H239c-15.1,0-27.3,12.3-27.3,27.3v13.6c-16.6-2.3-36.1-6-48.3-9.8c-26.3-8.1-54-0.4-78.1,21.8
	c-23.2,21.4-42.5,55.4-55.7,98.2C14.2,368.3,6.5,407,6,436.9c-0.6,40.3,12.3,64.8,38.5,72.9c4.8,1.5,10,2.2,15.4,2.2
	c25.8,0,57.4-16.7,88.2-47.1c8.6,6.4,19.2,10.2,30.7,10.2c28.5,0,51.6-23.2,51.6-51.6c0-3.2-0.3-6.3-0.8-9.3H283
	c-0.5,3-0.8,6.1-0.8,9.3c0,28.5,23.2,51.6,51.6,51.6c11.5,0,22.1-3.8,30.7-10.2c30.9,30.4,62.4,47.1,88.2,47.1
	c5.4,0,10.6-0.7,15.4-2.2C494.3,501.7,507.3,477.2,506.6,436.9z M231.6,194.5c0-4,3.3-7.3,7.3-7.3h34.7c4,0,7.3,3.3,7.3,7.3v15.8
	c-2.1,0.1-47.3,0.1-49.4,0V194.5z M178.8,455c-17.4,0-31.6-14.2-31.6-31.6c0-17.4,14.2-31.6,31.6-31.6s31.6,14.2,31.6,31.6
	C210.5,440.8,196.3,455,178.8,455z M302.2,423.4c0-17.4,14.2-31.6,31.6-31.6c17.4,0,31.6,14.2,31.6,31.6c0,17.4-14.2,31.6-31.6,31.6
	C316.4,455,302.2,440.8,302.2,423.4z M462.3,490.7c-20.3,6.3-52.9-9.6-84.2-40.6c4.7-7.8,7.4-16.9,7.4-26.7
	c0-28.5-23.2-51.6-51.6-51.6c-17.6,0-33.2,8.9-42.5,22.4h-70c-9.3-13.5-24.9-22.4-42.5-22.4c-28.5,0-51.6,23.2-51.6,51.6
	c0,9.8,2.7,18.9,7.4,26.7c-31.3,31-64,46.9-84.2,40.6c-6.2-1.9-25.1-7.7-24.4-53.4c0.4-28,7.8-64.9,22.7-113
	c12.2-39.4,29.5-70.3,50.2-89.4c13.1-12.1,34-25,58.6-17.4c21.6,6.7,63.2,13,79.7,13h38.4c16.4,0,58-6.3,79.7-13
	c24.6-7.6,45.5,5.2,58.6,17.4c20.6,19,38,49.9,50.2,89.4c14.8,48,22.3,85,22.7,113C487.3,482.9,468.5,488.8,462.3,490.7z"/>
<path class="st0" d="M394.8,268.6c0-18.6-15.2-33.8-33.8-33.8c-18.7,0-33.8,15.2-33.8,33.8c0,0.3,0,0.5,0,0.8c-0.3,0-0.5,0-0.8,0
	c-18.7,0-33.8,15.2-33.8,33.8c0,18.6,15.2,33.8,33.8,33.8c0,18.6,15.2,33.8,33.8,33.8c18.7,0,33.8-15.2,33.8-33.8c0-0.3,0-0.5,0-0.8
	c0.3,0,0.5,0,0.8,0c18.7,0,33.8-15.2,33.8-33.8C428.6,283.8,413.4,268.6,394.8,268.6z M360.9,254.8c7.6,0,13.8,6.2,13.8,13.8
	s-6.2,13.8-13.8,13.8s-13.8-6.2-13.8-13.8S353.3,254.8,360.9,254.8z M312.5,303.2c0-7.6,6.2-13.8,13.8-13.8s13.8,6.2,13.8,13.8
	s-6.2,13.8-13.8,13.8S312.5,310.8,312.5,303.2z M360.1,350.8c-7.6,0-13.8-6.2-13.8-13.8c0-7.6,6.2-13.8,13.8-13.8
	s13.8,6.2,13.8,13.8C373.9,344.6,367.7,350.8,360.1,350.8z M394.7,316.2c-7.6,0-13.8-6.2-13.8-13.8c0-7.6,6.2-13.8,13.8-13.8
	c7.6,0,13.8,6.2,13.8,13.8C408.6,310,402.4,316.2,394.7,316.2z"/>
<path class="st0" d="M166,364.2h-41.7c-5.5,0-10-4.5-10-10V334H94.1c-5.5,0-10-4.5-10-10v-41.7c0-5.5,4.5-10,10-10h20.2v-20.2
	c0-5.5,4.5-10,10-10H166c5.5,0,10,4.5,10,10v20.2h20.2c5.5,0,10,4.5,10,10V324c0,5.5-4.5,10-10,10H176v20.2
	C176,359.7,171.5,364.2,166,364.2z M134.3,344.2H156V324c0-5.5,4.5-10,10-10h20.2v-21.7H166c-5.5,0-10-4.5-10-10v-20.2h-21.7v20.2
	c0,5.5-4.5,10-10,10h-20.2V314h20.2c5.5,0,10,4.5,10,10V344.2z"/>
</svg>
