<?xml version="1.0" encoding="utf-8"?>
<!-- Generator: Adobe Illustrator 23.0.0, SVG Export Plug-In . SVG Version: 6.00 Build 0)  -->
<svg version="1.1" id="Capa_1" xmlns="http://www.w3.org/2000/svg" xmlns:xlink="http://www.w3.org/1999/xlink" x="0px" y="0px"
	 viewBox="0 0 512 512" style="enable-background:new 0 0 512 512;" xml:space="preserve">
<style type="text/css">
	.st0{fill:#697FFF;}
</style>
<g>
	<g>
		<g>
			<path class="st0" d="M151.8,301.5c-20,29.6-24.7,47.3-15.2,57.2c0.1,0.1,0.1,0.1,0.2,0.2c0,0,0,0,0,0c0.1,0.1,0.1,0.1,0.2,0.2
				c0.2,0.2,0.3,0.3,0.5,0.5c2.4,2.2,5.2,3.5,8.6,4.1l351.9,147.6c0,0,0,0,0,0c1.2,0.5,2.6,0.8,3.9,0.8c2.6,0,5.2-1,7.1-2.9
				c2.9-2.9,3.7-7.2,2.2-10.9l-147.6-352c-0.6-3.7-2.2-6.7-4.7-9.3c0,0,0,0,0,0c0,0,0,0,0,0c-0.1-0.1-0.1-0.1-0.2-0.2
				c-9.9-9.5-27.5-4.8-57.2,15.2c-5.5,3.7-11.3,7.9-17.3,12.5c-31.7-40-47.7-91.7-47.7-154.3c0-5.5-4.5-10-10-10
				c-5.5,0-10,4.5-10,10c0,40.6,6.5,77.6,19.5,110c8.3,20.8,19.2,39.8,32.6,56.7c-15.5,12.8-31.8,27.7-48,43.9
				c-15.2,15.2-29.3,30.5-41.6,45.2c-22-10.6-44-18.3-65.7-22.9c-5.4-1.1-10.7,2.3-11.9,7.7c-1.1,5.4,2.3,10.7,7.7,11.9
				c18.7,4,37.8,10.4,57,19.3C160.9,288.7,156.1,295.3,151.8,301.5z M441,382.4l42.3,100.9l-41.7-17.5c-2.2-3.5-6.9-12.1-9-25.1
				C429.8,423,432.7,403.1,441,382.4z M400.5,285.9l30,71.5c-22.6,43.5-21.1,76.6-15.2,97.4l-26.4-11c-3-2.7-13.7-13.8-17.8-36.8
				C367.1,383.9,369.4,344.9,400.5,285.9z M307.5,348.4c-6.7-35.4-7.5-88.6,26.7-140.5c3.5-4.7,6.7-9.2,9.7-13.6
				c4.3-6.4,7.9-12.2,10.8-17.5l16.5,39.4c-11.4,11.7-26.2,32.9-32.1,46.6c-2.2,5.1,0.2,11,5.2,13.1c1.3,0.6,2.6,0.8,3.9,0.8
				c3.9,0,7.6-2.3,9.2-6.1c4-9.2,13.7-23.8,22.3-34.1l10.8,25.8c-33.8,58.8-46.8,109.3-38.8,150.2c1.3,6.7,3.1,12.6,5.2,17.8
				l-21.6-9C329.9,413.7,314.7,386.1,307.5,348.4z M230.7,316.2c14.5-12.2,29.6-26,44.5-41c5-5,9.9-10,14.6-15
				c-8.6,35-6.5,67.3-1.9,91.9c4.2,22,11.1,41.8,18,56.8L258.4,389C253.8,384.9,232.1,363.4,230.7,316.2z M176.8,354.8
				c5.3-2.9,11.1-6.5,17.5-10.8c5.6-3.8,11.4-8,17.5-12.6c2.1,17.8,6.8,32.1,12.2,43.2L176.8,354.8z M152.4,343.5
				c1.1-4.6,5.1-15.4,20-36.4c3.6-5.1,7.7-10.5,12-16c2.8,1.5,5.6,3,8.3,4.6c1.6,0.9,3.3,1.3,5,1.3c3.5,0,6.8-1.8,8.7-5
				c2.8-4.8,1.1-10.9-3.7-13.7c-1.8-1-3.6-2.1-5.4-3.1c11.3-13.2,24-27,37.5-40.5c15.7-15.7,31.8-30.4,46.9-42.9
				c1.2,1.3,2.5,2.6,3.7,3.8c2,2,4.5,2.9,7.1,2.9c2.6,0,5.1-1,7.1-2.9c3.9-3.9,3.9-10.2,0-14.1c-0.7-0.7-1.4-1.4-2.1-2.2
				c3.3-2.5,6.5-4.8,9.6-7c21-14.9,31.8-18.9,36.4-20c-1.1,4.7-5.1,15.4-20,36.4c-15.4,21.7-37.6,47.4-62.4,72.3
				c-24.9,24.9-50.5,47-72.3,62.4C167.8,338.4,157,342.4,152.4,343.5z"/>
			<path class="st0" d="M330.8,289.4c-1.8,5.2,0.9,10.9,6.1,12.7c1.1,0.4,2.2,0.6,3.3,0.6c4,0,7.8-2.5,9.3-6.4
				c1.9-4.9-0.3-10.6-5.2-12.8c-5-2.3-11,0-13.2,5C331,288.8,330.9,289.1,330.8,289.4z"/>
			<path class="st0" d="M138.6,140.5C112.4,114.4,71,102.5,41.1,100c-5.5-0.4-10.3,3.7-10.8,9.2c-0.4,5.5,3.7,10.3,9.2,10.8
				c26.4,2.1,62.6,12.4,85,34.7c2,2,4.5,2.9,7.1,2.9c2.6,0,5.1-1,7.1-2.9C142.5,150.8,142.5,144.5,138.6,140.5z"/>
			<path class="st0" d="M0.3,114.2c1.2,4.5,5.2,7.4,9.7,7.4c0.9,0,1.7-0.1,2.6-0.3l0.5-0.1c5.4-1.3,8.6-6.8,7.3-12.1
				c-1.3-5.4-6.8-8.6-12.1-7.3c-0.3,0.1-0.6,0.1-0.9,0.2C2.1,103.4-1.1,108.9,0.3,114.2z"/>
			<path class="st0" d="M448.5,73.6c0-5.5-4.5-10-10-10h-10v-10c0-5.5-4.5-10-10-10s-10,4.5-10,10v10h-10c-5.5,0-10,4.5-10,10
				s4.5,10,10,10h10v10c0,5.5,4.5,10,10,10s10-4.5,10-10v-10h10C444,83.6,448.5,79.1,448.5,73.6z"/>
			<path class="st0" d="M214.5,170.6c0-5.5-4.5-10-10-10h-10v-10c0-5.5-4.5-10-10-10c-5.5,0-10,4.5-10,10v10h-10
				c-5.5,0-10,4.5-10,10s4.5,10,10,10h10v10c0,5.5,4.5,10,10,10c5.5,0,10-4.5,10-10v-10h10C210,180.6,214.5,176.1,214.5,170.6z"/>
			<path class="st0" d="M55.5,427.6c0,5.5,4.5,10,10,10h10v10c0,5.5,4.5,10,10,10s10-4.5,10-10v-10h10c5.5,0,10-4.5,10-10
				s-4.5-10-10-10h-10v-10c0-5.5-4.5-10-10-10s-10,4.5-10,10v10h-10C60,417.6,55.5,422.1,55.5,427.6z"/>
			<path class="st0" d="M152,30c0-16.5-13.5-30-30-30c-16.5,0-30,13.5-30,30s13.5,30,30,30S152,46.5,152,30z M132,30
				c0,5.5-4.5,10-10,10s-10-4.5-10-10s4.5-10,10-10S132,24.5,132,30z"/>
			<path class="st0" d="M29.5,203.6c0,16.5,13.5,30,30,30s30-13.5,30-30s-13.5-30-30-30C43,173.6,29.5,187.1,29.5,203.6z
				 M49.5,203.6c0-5.5,4.5-10,10-10s10,4.5,10,10s-4.5,10-10,10S49.5,209.1,49.5,203.6z"/>
			<path class="st0" d="M343.5,65.6c0-16.5-13.5-30-30-30c-16.5,0-30,13.5-30,30s13.5,30,30,30C330,95.6,343.5,82.2,343.5,65.6z
				 M323.5,65.6c0,5.5-4.5,10-10,10c-5.5,0-10-4.5-10-10s4.5-10,10-10S323.5,60.1,323.5,65.6z"/>
			<path class="st0" d="M72.8,304.1c5.5,0,10-4.5,10-10s-4.5-10-10-10s-10,4.5-10,10C62.8,299.6,67.3,304.1,72.8,304.1z"/>
			<path class="st0" d="M186.8,85.1c0-5.5-4.5-10-10-10s-10,4.5-10,10s4.5,10,10,10C182.3,95.1,186.8,90.6,186.8,85.1z"/>
			<path class="st0" d="M32.8,369.1c0,5.5,4.5,10,10,10c5.5,0,10-4.5,10-10s-4.5-10-10-10C37.3,359.1,32.8,363.5,32.8,369.1z"/>
			<path class="st0" d="M382.8,20c0-5.5-4.5-10-10-10s-10,4.5-10,10s4.5,10,10,10S382.8,25.5,382.8,20z"/>
		</g>
	</g>
</g>
</svg>
